<svg width="100" height="65" viewBox="0 0 100 65" fill="none" xmlns="http://www.w3.org/2000/svg">
    <!-- Solid Background -->
    <rect width="100" height="65" fill="#050a0f" />
    
    <!-- Outer Frame -->
    <rect x="2" y="2" width="96" height="61" rx="10" stroke="#C5A059" stroke-width="3" />
    <!-- Vertical Divider -->
    <line x1="50" y1="2" x2="50" y2="63" stroke="#C5A059" stroke-width="2" />

    <!-- Left Side: Detailed Brain -->
    <g transform="translate(1, 0)">
        <!-- Brain Base - Organic Lobed Shape -->
        <path 
            d="M26 14C23 14 20 16 19 19C15 19 12 23 12 28C12 33 15 37 19 37C19 43 23 48 29 48C31 48 33 47 35 45C37 48 41 50 45 48C45 44 47 41 45 37C48 37 51 34 51 29C51 24 48 20 44 20C44 14 39 10 33 10C30 10 27 12 26 14Z" 
            fill="#C5A059" 
            transform="scale(0.85) translate(8, 8)"
        />
        <!-- Brain Folds / Sulci -->
        <g transform="scale(0.85) translate(8, 8)">
            <!-- Fissure -->
            <path d="M29 14V48" stroke="#050a0f" stroke-width="2" stroke-linecap="round" />
            <!-- Grooves -->
            <path d="M22 22C18 22 17 26 19 29" stroke="#050a0f" stroke-width="1.5" stroke-linecap="round" fill="none" />
            <path d="M17 33C19 36 24 37 27 35" stroke="#050a0f" stroke-width="1.5" stroke-linecap="round" fill="none" />
            <path d="M36 21C40 21 41 24 39 27" stroke="#050a0f" stroke-width="1.5" stroke-linecap="round" fill="none" />
            <path d="M41 33C39 36 34 37 31 35" stroke="#050a0f" stroke-width="1.5" stroke-linecap="round" fill="none" />
            <!-- The "A" cutout -->
            <text x="36" y="31" fill="#050a0f" font-size="12" font-weight="900" font-family="Inter, sans-serif" text-anchor="middle" dominant-baseline="central">A</text>
        </g>
    </g>

    <!-- Right Side: Code / Circuits -->
    <g transform="translate(5, 0)">
        <path d="M62 20L57 25L62 30" stroke="#C5A059" stroke-width="3" stroke-linecap="round" stroke-linejoin="round" />
        <path d="M78 20L83 25L78 30" stroke="#C5A059" stroke-width="3" stroke-linecap="round" stroke-linejoin="round" />
        <line x1="73" y1="18" x2="67" y2="32" stroke="#C5A059" stroke-width="3" stroke-linecap="round" />

        <!-- Circuit Lines with knobs -->
        <line x1="55" y1="42" x2="72" y2="42" stroke="#C5A059" stroke-width="2.5" />
        <circle cx="72" cy="42" r="3.5" fill="#C5A059" />
        <line x1="55" y1="50" x2="78" y2="50" stroke="#C5A059" stroke-width="2.5" />
        <circle cx="78" cy="50" r="3.5" fill="#C5A059" />
        <path d="M55 58H75V60" stroke="#C5A059" stroke-width="2.5" fill="none" />
    </g>
</svg>
